<svg width="169" height="50" viewBox="0 0 169 50" fill="none" xmlns="http://www.w3.org/2000/svg">
<g clip-path="url(#clip0_101_142)">
<path d="M167.572 44.0956C167.572 46.7412 165.429 48.884 162.779 48.884H5.91237C3.26312 48.884 1.11282 46.7412 1.11282 44.0956V5.90953C1.11282 3.26528 3.26322 1.11487 5.91237 1.11487H162.777C165.429 1.11487 167.571 3.26528 167.571 5.90953L167.572 44.0956Z" fill="white"/>
<path d="M162.779 49.998H5.91238C2.65301 49.998 7.62939e-06 47.3512 7.62939e-06 44.0956V5.91082C7.62939e-06 2.6527 2.65301 0.00219727 5.91238 0.00219727H162.777C166.033 0.00219727 168.69 2.6527 168.69 5.91082V44.0956C168.692 47.3512 166.035 49.998 162.779 49.998Z" fill="#A6A6A6"/>
<path d="M167.572 44.0956C167.572 46.7412 165.429 48.884 162.779 48.884H5.91237C3.26312 48.884 1.11282 46.7412 1.11282 44.0956V5.90953C1.11282 3.26528 3.26322 1.11487 5.91237 1.11487H162.777C165.429 1.11487 167.571 3.26528 167.571 5.90953L167.572 44.0956Z" fill="black"/>
<path d="M37.6672 24.7369C37.631 20.7074 40.9666 18.747 41.1191 18.6557C39.23 15.9015 36.302 15.5251 35.2731 15.4951C32.8139 15.2363 30.4284 16.9667 29.1757 16.9667C27.8979 16.9667 25.9688 15.5201 23.8897 15.5626C21.2142 15.6039 18.7113 17.1529 17.3384 19.5584C14.5055 24.4631 16.6183 31.6707 19.3327 35.6352C20.6903 37.5781 22.277 39.7448 24.3535 39.6685C26.3852 39.586 27.1441 38.3745 29.5958 38.3745C32.0249 38.3745 32.7376 39.6685 34.8554 39.6197C37.0359 39.586 38.4086 37.6694 39.719 35.7102C41.288 33.4861 41.918 31.2931 41.9431 31.1806C41.893 31.1631 37.7097 29.5653 37.6672 24.7369ZM33.6664 12.8871C34.759 11.5206 35.5068 9.66151 35.2993 7.7749C33.7176 7.84492 31.7398 8.86886 30.6008 10.2054C29.5931 11.3831 28.6929 13.3135 28.9254 15.1288C30.7021 15.2613 32.5262 14.2324 33.6664 12.8871Z" fill="white"/>
<path d="M162.779 0.00219727H78.7562L111.666 49.998H162.779C166.034 49.998 168.691 47.3512 168.691 44.0918V5.91082C168.692 2.6527 166.035 0.00219727 162.779 0.00219727Z" fill="url(#paint0_linear_101_142)"/>
<path d="M67.094 39.3896H64.2548L62.6995 34.5024H57.2933L55.8118 39.3896H53.0476L58.4049 22.7515H61.713L67.094 39.3896ZM62.2307 32.452L60.8242 28.1075C60.6754 27.6636 60.3954 26.6184 59.9852 24.9731H59.9353C59.7703 25.6808 59.5065 26.726 59.1451 28.1075L57.7624 32.452H62.2307ZM80.8443 33.2434C80.8443 35.2838 80.2904 36.8966 79.1813 38.0807C78.1888 39.1346 76.9548 39.661 75.4831 39.661C73.8941 39.661 72.7514 39.0946 72.0575 37.9594V44.2544H69.392V31.3356C69.392 30.054 69.3583 28.7401 69.2933 27.3923H71.6375L71.7863 29.294H71.8362C72.7251 27.8612 74.0741 27.1447 75.8845 27.1447C77.2997 27.1447 78.4812 27.7035 79.4264 28.8225C80.3703 29.9441 80.8443 31.4169 80.8443 33.2434ZM78.1286 33.341C78.1286 32.1732 77.8661 31.2106 77.3385 30.4517C76.7621 29.6628 75.9882 29.2678 75.0181 29.2678C74.3604 29.2678 73.7628 29.4877 73.229 29.9216C72.6939 30.3592 72.3438 30.9305 72.1801 31.6381C72.0976 31.9682 72.0563 32.237 72.0563 32.4497V34.4512C72.0563 35.3226 72.3239 36.0591 72.859 36.6617C73.3941 37.2618 74.0892 37.563 74.9444 37.563C75.9484 37.563 76.7298 37.1743 77.2886 36.4028C77.8486 35.6289 78.1286 34.6087 78.1286 33.341ZM94.643 33.2434C94.643 35.2838 94.0892 36.8966 92.9802 38.0807C91.9863 39.1346 90.7536 39.661 89.2808 39.661C87.6917 39.661 86.549 39.0946 85.8551 37.9594V44.2544H83.1896V31.3356C83.1896 30.054 83.1559 28.7401 83.0908 27.3923H85.435L85.5838 29.294H85.6338C86.5215 27.8612 87.8705 27.1447 89.682 27.1447C91.096 27.1447 92.2775 27.7035 93.2253 28.8225C94.1681 29.9441 94.643 31.4169 94.643 33.2434ZM91.9263 33.341C91.9263 32.1732 91.6626 31.2106 91.1349 30.4517C90.5585 29.6628 89.7871 29.2678 88.8169 29.2678C88.1593 29.2678 87.5617 29.4877 87.0253 29.9216C86.4902 30.3592 86.1415 30.9305 85.9776 31.6381C85.8964 31.9682 85.8526 32.237 85.8526 32.4497V34.4512C85.8526 35.3226 86.1214 36.0591 86.654 36.6617C87.1891 37.2606 87.8843 37.563 88.7419 37.563C89.747 37.563 90.5284 37.1743 91.0861 36.4028C91.6462 35.6289 91.9263 34.6087 91.9263 33.341ZM110.071 34.7225C110.071 36.139 109.576 37.2905 108.592 38.1794C107.509 39.1496 105.998 39.6359 104.06 39.6359C102.269 39.6359 100.834 39.2908 99.7515 38.5995L100.368 36.3778C101.537 37.0704 102.821 37.4155 104.219 37.4155C105.224 37.4155 106.005 37.1879 106.563 36.7366C107.122 36.284 107.404 35.6789 107.404 34.9238C107.404 34.2475 107.17 33.681 106.712 33.2198C106.25 32.7597 105.488 32.3309 104.416 31.9371C101.503 30.8506 100.045 29.2615 100.045 27.1712C100.045 25.8059 100.56 24.6882 101.588 23.8143C102.616 22.9416 103.979 22.5054 105.674 22.5054C107.188 22.5054 108.45 22.7692 109.451 23.2955L108.782 25.4683C107.839 24.9582 106.775 24.7032 105.585 24.7032C104.645 24.7032 103.907 24.9345 103.38 25.3946C102.936 25.8059 102.711 26.3073 102.711 26.9023C102.711 27.5588 102.967 28.1039 103.477 28.5315C103.92 28.9252 104.727 29.3542 105.895 29.8143C107.328 30.3919 108.381 31.0645 109.055 31.8371C109.733 32.6096 110.071 33.5735 110.071 34.7225ZM118.907 29.3927H115.968V35.2176C115.968 36.6991 116.486 37.438 117.524 37.438C118 37.438 118.395 37.3979 118.708 37.3142L118.781 39.3384C118.256 39.5347 117.565 39.6334 116.708 39.6334C115.656 39.6334 114.833 39.3121 114.239 38.6695C113.648 38.0269 113.35 36.9504 113.35 35.4351V29.3877H111.6V27.3873H113.35V25.1907L115.968 24.4005V27.3873H118.907V29.3927ZM132.136 33.2922C132.136 35.1362 131.609 36.6502 130.556 37.8343C129.455 39.0533 127.989 39.6609 126.163 39.6609C124.4 39.6609 122.998 39.0771 121.953 37.9106C120.908 36.7415 120.385 35.2688 120.385 33.4922C120.385 31.633 120.926 30.1104 122.002 28.9264C123.081 27.7412 124.534 27.1486 126.36 27.1486C128.121 27.1486 129.535 27.7337 130.605 28.9014C131.628 30.0341 132.136 31.4969 132.136 33.2922ZM129.373 33.3535C129.373 32.2544 129.136 31.3117 128.66 30.5228C128.101 29.5701 127.301 29.0939 126.264 29.0939C125.196 29.0939 124.378 29.5701 123.82 30.5228C123.342 31.3117 123.105 32.2707 123.105 33.4034C123.105 34.5037 123.342 35.4488 123.82 36.2353C124.396 37.1879 125.2 37.6643 126.242 37.6643C127.26 37.6643 128.059 37.1779 128.637 36.2115C129.127 35.4039 129.373 34.4549 129.373 33.3535ZM140.804 29.7365C140.541 29.6877 140.258 29.6627 139.964 29.6627C139.027 29.6627 138.301 30.0153 137.791 30.7254C137.349 31.3505 137.126 32.1406 137.126 33.0946V39.3895H134.461V31.1706C134.461 29.789 134.434 28.5288 134.383 27.3936H136.705L136.803 29.6889H136.876C137.159 28.9001 137.601 28.2637 138.209 27.7873C138.803 27.3586 139.444 27.1447 140.136 27.1447C140.382 27.1447 140.604 27.1622 140.802 27.1936L140.804 29.7365ZM152.725 32.8234C152.725 33.301 152.694 33.7034 152.628 34.0323H144.631C144.661 35.2176 145.049 36.1252 145.792 36.7504C146.466 37.3081 147.337 37.588 148.407 37.588C149.591 37.588 150.671 37.4005 151.643 37.0217L152.06 38.8708C150.925 39.3659 149.585 39.6122 148.038 39.6122C146.178 39.6122 144.718 39.0644 143.655 37.9718C142.595 36.8779 142.063 35.4076 142.063 33.566C142.063 31.7581 142.557 30.2516 143.546 29.0502C144.581 27.7674 145.98 27.1259 147.741 27.1259C149.47 27.1259 150.779 27.7673 151.668 29.0502C152.372 30.0666 152.725 31.3268 152.725 32.8234ZM150.184 32.132C150.202 31.3406 150.027 30.6592 149.666 30.0828C149.205 29.3402 148.495 28.9701 147.543 28.9701C146.672 28.9701 145.962 29.3315 145.421 30.0566C144.978 30.633 144.714 31.3256 144.633 32.1295L150.184 32.132Z" fill="white"/>
<path d="M60.9454 16.7966H59.5488L58.7849 14.3949H56.1282L55.3993 16.7966H54.0403L56.6733 8.61878H58.2986L60.9454 16.7966ZM58.5549 13.3872L57.8635 11.2518C57.791 11.033 57.6572 10.5241 57.4509 9.71148H57.4259C57.3409 10.0628 57.2196 10.5729 57.0371 11.2518L56.3582 13.3872H58.5549ZM67.5291 10.9005L65.2961 16.7966H64.022L61.8617 10.9005H63.2695L64.2772 14.0186C64.4472 14.5399 64.5923 15.0375 64.701 15.5101H64.7373C64.8349 15.0863 64.9798 14.5887 65.1611 14.0186L66.1563 10.9005H67.5291ZM72.2825 16.7966L72.1849 16.1176H72.1486C71.7485 16.664 71.1659 16.9303 70.4259 16.9303C69.3706 16.9303 68.6179 16.1901 68.6179 15.1949C68.6179 13.7396 69.8794 12.987 72.0636 12.987V12.8782C72.0636 12.1018 71.651 11.713 70.8383 11.713C70.2556 11.713 69.7456 11.8593 69.298 12.1506L69.0316 11.2892C69.578 10.9491 70.257 10.7791 71.0583 10.7791C72.5986 10.7791 73.3762 11.5917 73.3762 13.2183V15.39C73.3762 15.9851 73.4012 16.4464 73.4612 16.7977L72.2825 16.7966ZM72.0999 13.8598C70.6435 13.8598 69.9158 14.2123 69.9158 15.0487C69.9158 15.6676 70.2921 15.9702 70.8134 15.9702C71.481 15.9702 72.0999 15.4613 72.0999 14.7699V13.8598ZM76.2945 9.92903C75.8582 9.92903 75.5181 9.58896 75.5181 9.14013C75.5181 8.69129 75.8695 8.36373 76.3195 8.36373C76.7683 8.36373 77.1321 8.69129 77.1197 9.14013C77.1197 9.61397 76.7809 9.92903 76.2945 9.92903ZM76.9746 16.7966H75.6644V10.9005H76.9746V16.7966ZM80.6128 16.7966H79.3026V8.19495H80.6128V16.7966ZM86.1814 16.7966L86.0837 16.1176H86.0476C85.6475 16.664 85.0649 16.9303 84.3248 16.9303C83.2696 16.9303 82.5169 16.1901 82.5169 15.1949C82.5169 13.7396 83.7783 12.987 85.9625 12.987V12.8782C85.9625 12.1018 85.5499 11.713 84.7372 11.713C84.1546 11.713 83.6445 11.8593 83.1969 12.1506L82.9295 11.2879C83.4758 10.9479 84.1547 10.7778 84.9561 10.7778C86.4964 10.7778 87.274 11.5905 87.274 13.217V15.3887C87.274 15.9838 87.3003 16.4452 87.3578 16.7965H86.1814V16.7966ZM85.9988 13.8598C84.5423 13.8598 83.8147 14.2123 83.8147 15.0487C83.8147 15.6676 84.1909 15.9702 84.7122 15.9702C85.3799 15.9702 85.9988 15.4613 85.9988 14.7699V13.8598ZM92.5827 16.9304C91.7463 16.9304 91.1286 16.5778 90.7285 15.8864H90.7022L90.6272 16.7966H89.5107C89.547 16.324 89.5595 15.7889 89.5595 15.2075V8.19495H90.871V11.7631H90.896C91.2847 11.108 91.9138 10.7804 92.7764 10.7804C94.1966 10.7804 95.1918 11.9944 95.1918 13.7648C95.1918 15.5951 94.0866 16.9304 92.5827 16.9304ZM92.3163 11.8094C91.5624 11.8094 90.8724 12.4645 90.8724 13.3747V14.4061C90.8724 15.2188 91.4924 15.8864 92.2939 15.8864C93.2753 15.8864 93.8592 15.0863 93.8592 13.8123C93.8578 12.6233 93.2502 11.8094 92.3163 11.8094ZM98.4387 16.7966H97.1298V8.19495H98.4387V16.7966ZM105.571 14.1636H101.638C101.664 15.28 102.402 15.9102 103.495 15.9102C104.077 15.9102 104.611 15.8126 105.084 15.6314L105.287 16.5415C104.73 16.7841 104.075 16.9054 103.311 16.9054C101.466 16.9054 100.374 15.7401 100.374 13.9335C100.374 12.1257 101.492 10.7667 103.163 10.7667C104.667 10.7667 105.615 11.8831 105.615 13.5697C105.62 13.7998 105.609 14.0061 105.571 14.1636ZM104.37 13.2297C104.37 12.3195 103.908 11.6769 103.071 11.6769C102.318 11.6769 101.726 12.332 101.638 13.2297H104.37ZM113.513 16.9304C111.79 16.9304 110.674 15.6439 110.674 13.8973C110.674 12.0769 111.814 10.7792 113.612 10.7792C115.308 10.7792 116.451 12.0044 116.451 13.801C116.451 15.6439 115.273 16.9304 113.513 16.9304ZM113.563 11.7369C112.616 11.7369 112.01 12.622 112.01 13.8598C112.01 15.0738 112.629 15.9589 113.55 15.9589C114.472 15.9589 115.089 15.0125 115.089 13.8348C115.091 12.6345 114.484 11.7369 113.563 11.7369ZM123.495 16.7966H122.186V13.4109C122.186 12.3682 121.786 11.8456 120.997 11.8456C120.22 11.8456 119.685 12.5133 119.685 13.2897V16.7966H118.376V12.5858C118.376 12.0644 118.363 11.5056 118.328 10.8992H119.48L119.542 11.8094H119.578C119.928 11.1793 120.646 10.7779 121.446 10.7779C122.682 10.7779 123.495 11.7244 123.495 13.2647V16.7966H123.495ZM132.068 11.8831H130.626V14.7462C130.626 15.4751 130.88 15.8389 131.389 15.8389C131.62 15.8389 131.815 15.8139 131.971 15.7776L132.008 16.7728C131.753 16.8705 131.411 16.9191 130.99 16.9191C129.957 16.9191 129.341 16.349 129.341 14.8562V11.8831H128.481V10.9005H129.341V9.82026L130.626 9.43143V10.8992H132.068V11.8831ZM139.007 16.7966H137.695V13.4359C137.695 12.3807 137.295 11.8469 136.506 11.8469C135.827 11.8469 135.197 12.3082 135.197 13.2422V16.7966H133.886V8.19495H135.197V11.7369H135.222C135.635 11.0942 136.23 10.7779 136.994 10.7779C138.243 10.7779 139.007 11.7481 139.007 13.2897V16.7966ZM145.702 14.1636H141.77C141.795 15.28 142.532 15.9102 143.625 15.9102C144.209 15.9102 144.741 15.8126 145.214 15.6314L145.419 16.5415C144.861 16.7841 144.205 16.9054 143.441 16.9054C141.596 16.9054 140.504 15.7401 140.504 13.9335C140.504 12.1257 141.622 10.7667 143.294 10.7667C144.798 10.7667 145.745 11.8831 145.745 13.5697C145.75 13.7998 145.738 14.0061 145.702 14.1636ZM144.5 13.2297C144.5 12.3195 144.04 11.6769 143.202 11.6769C142.448 11.6769 141.856 12.332 141.769 13.2297H144.5Z" fill="white"/>
</g>
<defs>
<linearGradient id="paint0_linear_101_142" x1="123.724" y1="50.1338" x2="123.724" y2="5.06775" gradientUnits="userSpaceOnUse">
<stop stop-color="#1A1A1A" stop-opacity="0.1"/>
<stop offset="0.123" stop-color="#212121" stop-opacity="0.151"/>
<stop offset="0.308" stop-color="#353535" stop-opacity="0.227"/>
<stop offset="0.532" stop-color="#575757" stop-opacity="0.318"/>
<stop offset="0.783" stop-color="#858585" stop-opacity="0.421"/>
<stop offset="1" stop-color="#B3B3B3" stop-opacity="0.51"/>
</linearGradient>
<clipPath id="clip0_101_142">
<rect width="168.691" height="50" fill="white"/>
</clipPath>
</defs>
</svg>
