<svg width="153" height="50" viewBox="0 0 153 50" fill="none" xmlns="http://www.w3.org/2000/svg">
<g clip-path="url(#clip0_101_152)">
<path d="M152.853 43.2425C152.853 46.9739 149.828 50 146.098 50H6.75688C3.0258 50.0003 0 46.9742 0 43.2425V6.75688C0 3.0258 3.0258 0 6.75688 0H146.097C149.828 0 152.853 3.0258 152.853 6.75688V43.2425H152.853Z" fill="black"/>
<path d="M11.4653 9.6261V43.4861L28.5395 26.5562L11.4653 9.6261Z" fill="url(#paint0_linear_101_152)"/>
<path d="M33.1253 22.0087L26.233 18.0296L11.4653 9.50293V9.62605L28.5395 26.5562L33.1253 22.0087Z" fill="url(#paint1_linear_101_152)"/>
<path d="M11.4653 43.4861V43.6092L26.233 35.0823L33.125 31.1032L28.5395 26.5563L11.4653 43.4861Z" fill="url(#paint2_linear_101_152)"/>
<path d="M33.1249 22.0087L28.5391 26.5562L33.1246 31.103L41.0012 26.5559L33.1249 22.0087Z" fill="url(#paint3_linear_101_152)"/>
<path d="M118.957 33.1751C118.316 33.1751 117.731 33.0568 117.201 32.8204C116.671 32.5837 116.226 32.2197 115.866 31.729H115.759C115.831 32.304 115.866 32.8491 115.866 33.364V37.4161H114.376V23.1483H115.589L115.795 24.4961H115.866C116.25 23.9566 116.697 23.5679 117.206 23.3282C117.715 23.0885 118.299 22.9687 118.957 22.9687C120.263 22.9687 121.271 23.4151 121.981 24.3075C122.69 25.1998 123.045 26.452 123.045 28.0628C123.045 29.6801 122.684 30.9362 121.963 31.8324C121.242 32.7277 120.24 33.1751 118.957 33.1751ZM118.742 24.2355C117.735 24.2355 117.008 24.5143 116.559 25.0711C116.109 25.6281 115.879 26.5148 115.866 27.7308V28.0628C115.866 29.4467 116.097 30.4365 116.559 31.0327C117.02 31.629 117.76 31.9263 118.778 31.9263C119.629 31.9263 120.295 31.5823 120.777 30.8935C121.259 30.2049 121.5 29.2555 121.5 28.0449C121.5 26.8175 121.259 25.8749 120.777 25.2193C120.295 24.563 119.616 24.2355 118.742 24.2355ZM126.499 32.9952H125.008V19.0152H126.499V32.9952ZM135.074 32.9952L134.777 31.5937H134.705C134.214 32.2111 133.724 32.6291 133.236 32.847C132.748 33.0661 132.138 33.1752 131.408 33.1752C130.432 33.1752 129.667 32.9235 129.112 32.4206C128.558 31.9176 128.281 31.2022 128.281 30.2733C128.281 28.2851 129.872 27.2428 133.052 27.1465L134.724 27.0924V26.4816C134.724 25.7088 134.557 25.138 134.224 24.7701C133.892 24.4013 133.36 24.2172 132.63 24.2172C131.809 24.2172 130.88 24.4689 129.845 24.9718L129.386 23.8308C129.872 23.5673 130.403 23.3608 130.981 23.211C131.559 23.0613 132.139 22.9863 132.72 22.9863C133.894 22.9863 134.764 23.2466 135.33 23.7678C135.896 24.289 136.179 25.1245 136.179 26.2748V32.995H135.074V32.9952H135.074ZM131.704 31.9445C132.632 31.9445 133.361 31.6898 133.892 31.1809C134.421 30.672 134.687 29.959 134.687 29.0421V28.1527L133.195 28.2152C132.009 28.2579 131.155 28.4414 130.63 28.7687C130.106 29.095 129.844 29.6027 129.844 30.2916C129.844 30.8304 130.007 31.241 130.334 31.5219C130.66 31.8037 131.117 31.9445 131.704 31.9445ZM137.044 23.1483H138.643L140.8 28.7639C141.273 30.0459 141.566 30.9712 141.681 31.5404H141.752C141.83 31.2344 141.994 30.7123 142.242 29.9718C142.491 29.2319 143.304 26.9579 144.681 23.1483H146.281L142.049 34.3613C141.63 35.4694 141.14 36.2556 140.579 36.7206C140.02 37.1844 139.332 37.4161 138.518 37.4161C138.063 37.4161 137.614 37.3653 137.17 37.2636V36.0688C137.499 36.1406 137.868 36.1767 138.275 36.1767C139.3 36.1767 140.03 35.6017 140.468 34.4515L141.015 33.0502L137.044 23.1483ZM91.3296 24.0633C91.8029 24.4551 92.7915 25.2781 92.7915 26.8444C92.7915 28.3676 91.9264 29.0899 91.0612 29.7686C90.7935 30.036 90.4844 30.3253 90.4844 30.779C90.4844 31.2311 90.7932 31.4786 91.0206 31.6642L91.7623 32.2397C92.6684 33.0021 93.4914 33.7029 93.4914 35.1245C93.4914 37.0604 91.6171 39.0163 88.0752 39.0163C85.0882 39.0163 83.6472 37.5956 83.6472 36.0706C83.6472 35.3295 84.0163 34.2796 85.2332 33.5579C86.5092 32.7753 88.2404 32.6734 89.1668 32.61C88.8776 32.2398 88.5489 31.8483 88.5489 31.2108C88.5489 30.8612 88.6523 30.655 88.7548 30.4066C88.5273 30.4276 88.3011 30.4482 88.0949 30.4482C85.9125 30.4482 84.6768 28.821 84.6768 27.2153C84.6768 26.2676 85.1098 25.2166 85.9944 24.4554C87.1688 23.4875 88.5692 23.3222 89.6824 23.3222H93.9242L92.606 24.0636H91.3296V24.0633H91.3296ZM89.8667 33.2086C89.7021 33.1871 89.5986 33.1871 89.3936 33.1871C89.2084 33.1871 88.0946 33.2292 87.2306 33.5182C86.7776 33.6817 85.4591 34.176 85.4591 35.6391C85.4591 37.1008 86.881 38.1527 89.085 38.1527C91.0609 38.1527 92.1125 37.2033 92.1125 35.9275C92.1125 34.875 91.4327 34.3212 89.8667 33.2086ZM90.4644 29.2946C90.9375 28.8204 90.9781 28.162 90.9781 27.7908C90.9781 26.3083 90.0929 24.0015 88.3839 24.0015C87.8477 24.0015 87.2716 24.2689 86.9419 24.6813C86.5923 25.1138 86.4883 25.6693 86.4883 26.2055C86.4883 27.5852 87.2916 29.8717 89.0637 29.8717C89.5787 29.8717 90.1336 29.6246 90.4644 29.2946ZM78.363 32.879C75.094 32.879 73.346 30.3289 73.346 28.0254C73.346 25.3313 75.5458 23.0293 78.6727 23.0293C81.6939 23.0293 83.586 25.3932 83.586 27.882C83.5862 30.3074 81.7158 32.879 78.363 32.879ZM80.9331 31.2135C81.4274 30.5549 81.5508 29.7327 81.5508 28.9301C81.5508 27.1199 80.6871 23.6659 78.1371 23.6659C77.4587 23.6659 76.7804 23.9337 76.287 24.3664C75.4849 25.0851 75.3402 25.9903 75.3402 26.8755C75.3402 28.9097 76.3479 32.2607 78.8367 32.2607C79.6385 32.2607 80.4612 31.8707 80.9331 31.2135ZM67.2176 32.879C63.9479 32.879 62.1997 30.3289 62.1997 28.0254C62.1997 25.3313 64.4004 23.0293 67.5263 23.0293C70.5485 23.0293 72.4402 25.3932 72.4402 27.882C72.4405 30.3074 70.5698 32.879 67.2176 32.879ZM69.7883 31.2135C70.2817 30.5549 70.4054 29.7327 70.4054 28.9301C70.4054 27.1199 69.5411 23.6659 66.9911 23.6659C66.313 23.6659 65.634 23.9337 65.1409 24.3664C64.3388 25.0851 64.1951 25.9903 64.1951 26.8755C64.1951 28.9097 65.2022 32.2607 67.6913 32.2607C68.4934 32.2607 69.3155 31.8707 69.7883 31.2135ZM60.629 32.5565L57.6722 33.2388C56.4727 33.4253 55.398 33.5893 54.2615 33.5893C48.5548 33.5893 46.3849 29.3924 46.3849 26.1051C46.3849 22.0949 49.4648 18.3745 54.7373 18.3745C55.8541 18.3745 56.9281 18.5395 57.8997 18.8084C59.4501 19.2427 60.1736 19.7797 60.6287 20.0902L58.9121 21.7234L58.1889 21.888L58.7056 21.0608C58.0031 20.3792 56.7201 19.1183 54.2816 19.1183C51.0149 19.1183 48.5542 21.6003 48.5542 25.2178C48.5542 29.1034 51.3664 32.7627 55.8723 32.7627C57.1968 32.7627 57.8776 32.4944 58.4982 32.2457V28.9181L55.3771 29.0833L57.0303 28.1934H61.4135L60.8764 28.7101C60.7306 28.8347 60.7106 28.8766 60.6694 29.0403C60.6479 29.2268 60.6284 29.8269 60.6284 30.0334V32.5566H60.629V32.5565Z" fill="#F9F9F9"/>
<path d="M97.8639 31.961C97.1814 31.8989 97.0385 31.7754 97.0385 30.9683V19.2673C97.0427 19.2228 97.0453 19.1771 97.0495 19.134C97.1329 18.4108 97.3394 18.2868 97.981 17.9142H95.0237L93.4727 18.6586H95.0533V18.6679L95.0521 18.6604V31.4237C95.0521 31.8364 94.9705 31.8992 94.4944 32.5187H98.1541L98.9192 32.065C98.568 32.0223 98.216 32.0023 97.8639 31.961ZM106.276 32.1511C106.051 32.2745 105.826 32.4188 105.601 32.5208C104.922 32.8286 104.224 32.911 103.607 32.911C102.951 32.911 101.924 32.8686 100.876 32.1098C99.4194 31.0824 98.7829 29.3169 98.7829 27.7775C98.7829 24.5957 101.37 23.0355 103.484 23.0355C104.224 23.0355 104.984 23.2199 105.6 23.6108C106.626 24.287 106.893 25.1698 107.036 25.6423L102.212 27.5935L100.631 27.7165C101.143 30.324 102.909 31.8421 104.86 31.8421C105.907 31.8421 106.667 31.4733 107.365 31.1249L106.276 32.1511ZM104.347 26.032C104.737 25.8888 104.942 25.7651 104.942 25.4779C104.942 24.6573 104.018 23.7123 102.909 23.7123C102.087 23.7123 100.548 24.3492 100.548 26.566C100.548 26.9151 100.589 27.2844 100.61 27.6553L104.347 26.032ZM108.258 23.1759V24.5306H108.094V23.1759H107.645V23.0354H108.706V23.1759H108.258ZM110.105 24.5306V23.1634H110.098L109.68 24.5306H109.552L109.131 23.1634H109.125V24.5306H108.976V23.0355H109.232L109.613 24.244H109.618L109.993 23.0355H110.253V24.5306H110.105Z" fill="#F9F9F9"/>
<path d="M50.4911 14.349H49.4637C49.4637 14.2077 49.3663 13.8075 49.1714 13.1483H47.6882C47.4871 13.7968 47.3864 14.1969 47.3864 14.349H46.4203C46.4203 14.2656 46.6701 13.5807 47.1698 12.2945C47.6694 11.0082 47.9193 10.2996 47.9193 10.1694H49.1329C49.1329 10.2913 49.3591 10.9894 49.8118 12.264C50.2646 13.5385 50.4911 14.2334 50.4911 14.349ZM49.0079 12.535C48.6419 11.4308 48.459 10.8337 48.459 10.7437H48.4076C48.4076 10.8271 48.2181 11.4242 47.8395 12.535H49.0079ZM54.6307 14.349H53.8379C53.8379 14.2612 53.5435 13.7979 52.9551 12.9591C52.3389 12.0751 51.9877 11.4708 51.9023 11.1454H51.8509C51.9044 11.614 51.9313 12.0378 51.9313 12.4167C51.9313 12.9454 51.9462 13.5897 51.9761 14.3493H51.1863C51.2182 13.6859 51.2344 12.9573 51.2344 12.1633C51.2344 11.3821 51.2183 10.7175 51.1863 10.1697H52.1396C52.1396 10.2833 52.4037 10.736 52.9324 11.5276C53.4952 12.3686 53.8185 12.9391 53.9019 13.2388H53.95C53.8986 12.7616 53.8729 12.3336 53.8729 11.9547C53.8729 11.375 53.8579 10.7796 53.8281 10.1697H54.6308C54.6006 10.7004 54.5859 11.3651 54.5859 12.1633C54.5856 12.9675 54.6005 13.696 54.6307 14.349ZM59.2834 12.1146C59.2834 12.7224 59.0886 13.2532 58.6992 13.7068C58.3095 14.1608 57.7638 14.3873 57.0618 14.3873C56.745 14.3873 56.3084 14.3744 55.752 14.3487C55.7797 13.7023 55.7938 12.9734 55.7938 12.1627C55.7938 11.3839 55.7798 10.7193 55.752 10.1691H56.3138C56.4059 10.1691 56.5427 10.1658 56.7247 10.1595C56.9064 10.1532 57.0254 10.1499 57.0809 10.1499C57.8535 10.1499 58.4135 10.3427 58.7616 10.7279C59.1095 11.1131 59.2834 11.5751 59.2834 12.1146ZM58.4072 12.2526C58.4072 11.8417 58.2874 11.4956 58.0477 11.2138C57.808 10.9326 57.4419 10.7919 56.9497 10.7919C56.8577 10.7919 56.7316 10.8014 56.5708 10.8209C56.592 11.2491 56.6028 11.6961 56.6028 12.1627C56.6028 12.6743 56.6135 13.1814 56.6347 13.6844C56.7721 13.7121 56.9118 13.7261 57.0519 13.7262C57.5121 13.7262 57.8528 13.5831 58.0743 13.2974C58.2957 13.0117 58.4072 12.6635 58.4072 12.2526ZM63.5739 14.349H62.6236C62.3753 13.5914 62.1849 13.1238 62.0523 12.9462C61.9196 12.7684 61.7056 12.6797 61.4103 12.6797C61.286 12.6797 61.1673 12.6809 61.0541 12.683C61.0541 13.2332 61.0636 13.7884 61.0831 14.349H60.1907C60.2185 13.7026 60.2326 12.9737 60.2326 12.163C60.2326 11.3842 60.2185 10.7195 60.1907 10.1694H60.746C60.8102 10.1694 60.9444 10.1661 61.1488 10.1598C61.3533 10.1535 61.5421 10.1502 61.7155 10.1502C62.6978 10.1502 63.1891 10.4861 63.1891 11.1582C63.1891 11.6911 62.9087 12.0623 62.3481 12.2723V12.3205C62.5642 12.3802 62.7536 12.5491 62.9162 12.8258C63.0785 13.1028 63.2978 13.6106 63.5739 14.349ZM62.3702 11.3955C62.3702 10.9697 62.0962 10.7566 61.5484 10.7566C61.3473 10.7566 61.1694 10.7715 61.0155 10.8014C61.0391 11.1331 61.0508 11.5656 61.0508 12.0984C61.1686 12.1029 61.2681 12.1047 61.3493 12.1047C62.0298 12.105 62.3702 11.8686 62.3702 11.3955ZM68.1755 12.1821C68.1755 12.839 67.9744 13.3837 67.5719 13.8161C67.1693 14.2483 66.6718 14.4646 66.0792 14.4646C65.5141 14.4646 65.041 14.2662 64.6602 13.869C64.2792 13.4722 64.0889 12.9675 64.0889 12.3557C64.0889 11.6988 64.29 11.154 64.6925 10.7216C65.0948 10.2895 65.5923 10.0731 66.1852 10.0731C66.7503 10.0731 67.2231 10.271 67.6042 10.6669C67.9852 11.0629 68.1755 11.5677 68.1755 12.1821ZM67.2898 12.275C67.2898 11.8277 67.1753 11.4649 66.9464 11.1866C66.7172 10.9084 66.4348 10.7695 66.0989 10.7695C65.7863 10.7695 65.5209 10.9096 65.3028 11.1899C65.0846 11.4702 64.9749 11.8244 64.9749 12.2526C64.9749 12.6976 65.09 13.0598 65.3201 13.3392C65.5502 13.6187 65.832 13.7582 66.1661 13.7582C66.4784 13.7582 66.7441 13.6175 66.9622 13.3359C67.1804 13.0547 67.2898 12.7009 67.2898 12.275ZM69.9907 14.349H69.0822C69.11 13.6856 69.1241 12.957 69.1241 12.163C69.1241 11.3818 69.1101 10.7172 69.0822 10.1694H69.9907C69.9629 10.7088 69.9489 11.3731 69.9489 12.163C69.9489 12.9695 69.9629 13.6984 69.9907 14.349ZM74.6437 12.1146C74.6437 12.7224 74.4489 13.2532 74.0595 13.7068C73.6698 14.1608 73.1241 14.3873 72.4221 14.3873C72.1054 14.3873 71.6687 14.3744 71.1123 14.3487C71.1401 13.7023 71.1541 12.9734 71.1541 12.1627C71.1541 11.3839 71.1401 10.7193 71.1123 10.1691H71.6741C71.7662 10.1691 71.903 10.1658 72.085 10.1595C72.2668 10.1532 72.3857 10.1499 72.4413 10.1499C73.2138 10.1499 73.7738 10.3427 74.122 10.7279C74.4698 11.1131 74.6437 11.5751 74.6437 12.1146ZM73.7675 12.2526C73.7675 11.8417 73.6477 11.4956 73.408 11.2138C73.1683 10.9326 72.8023 10.7919 72.31 10.7919C72.218 10.7919 72.0919 10.8014 71.9311 10.8209C71.9523 11.2491 71.9631 11.6961 71.9631 12.1627C71.9631 12.6743 71.9738 13.1814 71.995 13.6844C72.1324 13.7121 72.2721 13.7261 72.4122 13.7262C72.8724 13.7262 73.2131 13.5831 73.4346 13.2974C73.6561 13.0117 73.7675 12.6635 73.7675 12.2526ZM80.8167 14.349H79.7893C79.7893 14.2077 79.6918 13.8075 79.4967 13.1483H78.0135C77.8124 13.7968 77.7117 14.1969 77.7117 14.349H76.7458C76.7458 14.2656 76.9956 13.5807 77.4953 12.2945C77.995 11.0082 78.2448 10.2996 78.2448 10.1694H79.4584C79.4584 10.2913 79.685 10.9894 80.1374 12.264C80.5899 13.5385 80.8167 14.2334 80.8167 14.349ZM79.3335 12.535C78.9674 11.4308 78.7842 10.8337 78.7842 10.7437H78.7328C78.7328 10.8271 78.5436 11.4242 78.165 12.535H79.3335ZM84.5612 11.2637C84.5612 11.7754 84.3711 12.1531 83.9913 12.397C83.6115 12.6408 83.1456 12.763 82.5933 12.763C82.4926 12.763 82.4212 12.7609 82.3781 12.7567C82.3781 13.1593 82.3898 13.6898 82.4134 14.349H81.5112C81.5389 13.7307 81.553 13.0018 81.553 12.163C81.553 11.3925 81.539 10.7279 81.5112 10.1694H82.0697C82.1489 10.1694 82.3007 10.1661 82.5254 10.1598C82.7502 10.1535 82.9447 10.1502 83.1097 10.1502C83.5161 10.1502 83.8598 10.2423 84.1401 10.4264C84.4204 10.6105 84.5612 10.8893 84.5612 11.2637ZM83.7331 11.4404C83.7331 10.9825 83.4292 10.7533 82.8213 10.7533C82.6692 10.7533 82.5087 10.7694 82.3399 10.8014C82.3635 11.2061 82.3752 11.6639 82.3752 12.1755C82.4286 12.18 82.4908 12.1818 82.5613 12.1818C83.3425 12.1821 83.7331 11.9349 83.7331 11.4404ZM88.4115 11.2637C88.4115 11.7754 88.2215 12.1531 87.8419 12.397C87.4621 12.6408 86.9959 12.763 86.4437 12.763C86.3429 12.763 86.2715 12.7609 86.2285 12.7567C86.2285 13.1593 86.2401 13.6898 86.2637 14.349H85.3615C85.3893 13.7307 85.4034 13.0018 85.4034 12.163C85.4034 11.3925 85.3893 10.7279 85.3615 10.1694H85.9201C85.9993 10.1694 86.1511 10.1661 86.3758 10.1598C86.6005 10.1535 86.7951 10.1502 86.96 10.1502C87.3664 10.1502 87.7101 10.2423 87.9905 10.4264C88.2707 10.6105 88.4115 10.8893 88.4115 11.2637ZM87.5834 11.4404C87.5834 10.9825 87.2795 10.7533 86.6717 10.7533C86.5196 10.7533 86.3591 10.7694 86.1902 10.8014C86.2138 11.2061 86.2255 11.6639 86.2255 12.1755C86.279 12.18 86.3412 12.1818 86.4117 12.1818C87.1928 12.1821 87.5834 11.9349 87.5834 11.4404ZM94.7067 12.1821C94.7067 12.839 94.5056 13.3837 94.103 13.8161C93.7005 14.2486 93.2029 14.4646 92.6103 14.4646C92.0452 14.4646 91.5721 14.2662 91.1914 13.869C90.8106 13.4722 90.62 12.9675 90.62 12.3557C90.62 11.6988 90.8211 11.154 91.2236 10.7216C91.6262 10.2892 92.1238 10.0731 92.7164 10.0731C93.2815 10.0731 93.7546 10.271 94.1353 10.6669C94.516 11.0629 94.7067 11.5677 94.7067 12.1821ZM93.8206 12.275C93.8206 11.8277 93.7061 11.4649 93.4772 11.1866C93.2483 10.9084 92.9656 10.7695 92.6297 10.7695C92.3171 10.7695 92.0517 10.9096 91.8336 11.1899C91.6154 11.4702 91.5061 11.8244 91.5061 12.2526C91.5061 12.6976 91.6211 13.0598 91.8512 13.3392C92.0813 13.6187 92.3631 13.7582 92.697 13.7582C93.0095 13.7582 93.2749 13.6175 93.4931 13.336C93.7115 13.0547 93.8206 12.7009 93.8206 12.275ZM99.0579 14.349H98.265C98.265 14.2612 97.9709 13.7979 97.3822 12.9591C96.766 12.0751 96.4149 11.4708 96.3294 11.1454H96.278C96.3315 11.614 96.3584 12.0378 96.3584 12.4167C96.3584 12.9454 96.3734 13.5897 96.4033 14.3493H95.6134C95.6454 13.6859 95.6615 12.9573 95.6615 12.1633C95.6615 11.3821 95.6454 10.7175 95.6134 10.1697H96.5667C96.5667 10.2833 96.8312 10.736 97.3596 11.5276C97.9226 12.3686 98.2456 12.9391 98.329 13.2388H98.3771C98.3257 12.7616 98.3 12.3336 98.3 11.9547C98.3 11.375 98.2851 10.7796 98.2552 10.1697H99.0579C99.0277 10.7004 99.0131 11.3651 99.0131 12.1633C99.013 12.9675 99.028 13.696 99.0579 14.349Z" fill="#F9F9FA"/>
</g>
<defs>
<linearGradient id="paint0_linear_101_152" x1="20.0024" y1="9.62615" x2="20.0024" y2="43.4861" gradientUnits="userSpaceOnUse">
<stop stop-color="#257CB0"/>
<stop offset="0.286" stop-color="#4A93B5"/>
<stop offset="0.767" stop-color="#78BCBB"/>
<stop offset="1" stop-color="#89CFBD"/>
</linearGradient>
<linearGradient id="paint1_linear_101_152" x1="11.4655" y1="18.0293" x2="33.1255" y2="18.0293" gradientUnits="userSpaceOnUse">
<stop stop-color="#52C1AD"/>
<stop offset="1" stop-color="#DEE89A"/>
</linearGradient>
<linearGradient id="paint2_linear_101_152" x1="22.2951" y1="26.5563" x2="22.2951" y2="43.6093" gradientUnits="userSpaceOnUse">
<stop stop-color="#EC413D"/>
<stop offset="0.167" stop-color="#DA4452"/>
<stop offset="0.575" stop-color="#B0487A"/>
<stop offset="0.862" stop-color="#954A92"/>
<stop offset="1" stop-color="#8A4A9D"/>
</linearGradient>
<linearGradient id="paint3_linear_101_152" x1="34.7703" y1="22.0087" x2="34.7703" y2="31.1028" gradientUnits="userSpaceOnUse">
<stop stop-color="#F58879"/>
<stop offset="0.119" stop-color="#F69079"/>
<stop offset="0.713" stop-color="#FCB877"/>
<stop offset="1" stop-color="#FEC874"/>
</linearGradient>
<clipPath id="clip0_101_152">
<rect width="152.853" height="50" fill="white"/>
</clipPath>
</defs>
</svg>
