<svg width="206" height="126" viewBox="0 0 206 126" fill="none" xmlns="http://www.w3.org/2000/svg">
<g clip-path="url(#clip0_304_59)">
<path d="M0.230469 72.5C0.230469 64.8333 3.0638 55.1667 8.73047 43.5C14.3971 31.8333 21.7305 21.6666 30.7305 13C39.7305 4.33333 49.0638 0 58.7305 0C66.0638 0 71.8971 1.66667 76.2305 5C80.5638 8 82.7305 13 82.7305 20C82.7305 25.3333 81.3971 29.1667 78.7305 31.5C76.0638 33.5 73.0638 35 69.7305 36C66.7305 37 64.5638 37.8333 63.2305 38.5C53.8971 43.5 49.2305 50.1667 49.2305 58.5C49.2305 62.1666 50.8971 65.5 54.2305 68.5C57.8971 71.1666 62.5638 72.5 68.2305 72.5C73.8971 72.5 78.5638 71.3333 82.2305 69C86.2305 70.6667 89.2305 72.8333 91.2305 75.5C93.5638 78.1666 94.7305 82.1667 94.7305 87.5C94.7305 94.1667 92.2305 100.5 87.2305 106.5C82.2305 112.167 76.0638 116.833 68.7305 120.5C61.3971 123.833 54.2305 125.5 47.2305 125.5C32.5638 125.5 21.0638 121 12.7305 112C4.39714 102.667 0.230469 89.5 0.230469 72.5ZM110.73 72.5C110.73 64.8333 113.564 55.1667 119.23 43.5C124.897 31.8333 132.23 21.6666 141.23 13C150.23 4.33333 159.564 0 169.23 0C176.564 0 182.397 1.66667 186.73 5C191.064 8 193.23 13 193.23 20C193.23 25.3333 191.897 29.1667 189.23 31.5C186.564 33.5 183.564 35 180.23 36C177.23 37 175.064 37.8333 173.73 38.5C164.397 43.5 159.73 50.1667 159.73 58.5C159.73 62.1666 161.397 65.5 164.73 68.5C168.397 71.1666 173.064 72.5 178.73 72.5C184.397 72.5 189.064 71.3333 192.73 69C196.73 70.6667 199.73 72.8333 201.73 75.5C204.064 78.1666 205.23 82.1667 205.23 87.5C205.23 94.1667 202.73 100.5 197.73 106.5C192.73 112.167 186.564 116.833 179.23 120.5C171.897 123.833 164.73 125.5 157.73 125.5C143.064 125.5 131.564 121 123.23 112C114.897 102.667 110.73 89.5 110.73 72.5Z" fill="#F1F1F1"/>
</g>
<defs>
<clipPath id="clip0_304_59">
<rect width="206" height="126" fill="white"/>
</clipPath>
</defs>
</svg>
